<svg xmlns="http://www.w3.org/2000/svg" class="svg-sprite">
    <symbol viewBox="0 0 40 40" id="qa" fill="none">
        <g opacity="0.67">
            <path fill-rule="evenodd" clip-rule="evenodd" d="M6.70001 19.0336L12.7704 17.4166C14.099 13.1396 18.0862 10.033 22.8 10.033C28.6002 10.033 33.3 14.7342 33.3 20.533C33.3 26.3332 28.6002 31.033 22.8 31.033C18.0862 31.033 14.099 27.9278 12.7704 23.6508L6.70001 22.0338V19.0336Z" stroke="#333333" stroke-width="2"/>
            <path fill-rule="evenodd" clip-rule="evenodd" d="M20 20.5333C20 21.3075 19.3742 21.9333 18.6 21.9333C17.8258 21.9333 17.2 21.3075 17.2 20.5333C17.2 19.7591 17.8258 19.1333 18.6 19.1333C19.3742 19.1333 20 19.7591 20 20.5333" fill="#333333"/>
            <path fill-rule="evenodd" clip-rule="evenodd" d="M24.2 20.5333C24.2 21.3075 23.5742 21.9333 22.8 21.9333C22.0258 21.9333 21.4 21.3075 21.4 20.5333C21.4 19.7591 22.0258 19.1333 22.8 19.1333C23.5742 19.1333 24.2 19.7591 24.2 20.5333" fill="#333333"/>
            <path fill-rule="evenodd" clip-rule="evenodd" d="M28.4 20.5333C28.4 21.3075 27.7742 21.9333 27 21.9333C26.2258 21.9333 25.6 21.3075 25.6 20.5333C25.6 19.7591 26.2258 19.1333 27 19.1333C27.7742 19.1333 28.4 19.7591 28.4 20.5333" fill="#333333"/>
        </g>
    </symbol>
    <symbol viewBox="0 0 40 40" id="salon"  fill="none">
        <g opacity="0.67">
            <path fill-rule="evenodd" clip-rule="evenodd" d="M27.4843 20C27.4843 20 28.1548 18.6605 28.1548 16.7855C28.1548 12.347 24.5578 8.75 20.1193 8.75C15.6808 8.75 12.0838 12.347 12.0838 16.7855C12.0838 18.821 12.7543 20 12.7543 20L18.5128 31.25H21.7258L27.4843 20Z" stroke="#333333" stroke-width="2"/>
            <path fill-rule="evenodd" clip-rule="evenodd" d="M23.119 17C23.119 18.656 21.775 20 20.119 20C18.463 20 17.119 18.656 17.119 17C17.119 15.344 18.463 14 20.119 14C21.775 14 23.119 15.344 23.119 17Z" stroke="#333333" stroke-width="2"/>
        </g>
    </symbol>
    <symbol viewBox="0 0 40 40" id="map" fill="none">
        <g opacity="0.67">
            <path fill-rule="evenodd" clip-rule="evenodd" d="M25.1357 31.2605L14.7497 28.292V8.91195C14.7977 8.87595 14.8172 8.86095 14.8637 8.82495L25.2497 11.792V31.1735C25.2017 31.2095 25.1822 31.2245 25.1357 31.2605Z" stroke="#333333" stroke-width="2"/>
            <path fill-rule="evenodd" clip-rule="evenodd" d="M25.3804 31.2284L31.2499 28.2929V9.03588C31.1554 8.97738 31.1284 8.95938 31.0339 8.90088L25.2499 11.7929V31.1474C25.3069 31.1834 25.3234 31.1939 25.3804 31.2284Z" stroke="#333333" stroke-width="2"/>
            <path fill-rule="evenodd" clip-rule="evenodd" d="M8.96677 31.1844L14.7493 28.2924V8.93793C14.6923 8.90343 14.6773 8.89293 14.6203 8.85693L8.74927 11.7924V31.0494C8.84527 31.1079 8.87227 31.1259 8.96677 31.1844Z" stroke="#333333" stroke-width="2"/>
        </g>
    </symbol>
    <symbol viewBox="0 0 40 40" id="vip" fill="none">
        <g opacity="0.67">
            <path d="M11.4167 19.1006V23.1491C11.4167 27.7061 15.1112 31.3991 19.6667 31.3991C24.2222 31.3991 27.9167 27.7061 27.9167 23.1491V19.1006" stroke="#333333" stroke-width="2"/>
            <path fill-rule="evenodd" clip-rule="evenodd" d="M11.4167 11.75V19.25H27.9167V11.75H25.6667L24.1667 14.75H22.6667L20.5232 8.75H18.7022L16.6667 14.75H15.1667L13.6667 11.75H11.4167Z" stroke="#333333" stroke-width="2"/>
        </g>
    </symbol>
</svg>