<svg xmlns="http://www.w3.org/2000/svg" class="svg-sprite">
    <symbol viewBox="0 0 50 50" id="mobileLogo" fill="none">
        <path fill-rule="evenodd" clip-rule="evenodd" d="M26.4262 25.4447V13.5889C32.1011 14.2791 36.5029 19.1257 36.5183 24.9846C36.5183 31.3343 31.3649 36.4876 25.0152 36.4876C24.6624 36.4876 24.3097 36.4723 23.9569 36.4416V26.503C23.9569 26.4416 24.0029 26.3803 24.0796 26.3803H25.4907C25.9968 26.3803 26.4262 25.9662 26.4262 25.4447ZM26.1808 31.2729C25.3832 31.2729 24.739 30.6287 24.739 29.8312C24.739 29.0337 25.3832 28.3895 26.1808 28.3895C26.9783 28.3895 27.6225 29.0337 27.6225 29.8312C27.6225 30.6287 26.9783 31.2729 26.1808 31.2729ZM28.1133 29.8312C28.1133 30.6287 28.7574 31.2729 29.555 31.2729C30.3525 31.2729 30.9967 30.6287 30.9967 29.8312C30.9967 29.0337 30.3525 28.3895 29.555 28.3895C28.7574 28.3895 28.1133 29.0337 28.1133 29.8312ZM31.4875 29.8312C31.4875 30.6287 32.1317 31.2729 32.9292 31.2729C33.7268 31.2729 34.3709 30.6287 34.3709 29.8312C34.3709 29.0337 33.7268 28.3895 32.9292 28.3895C32.1317 28.3895 31.4875 29.0337 31.4875 29.8312Z" fill="#00B956"/>
        <path fill-rule="evenodd" clip-rule="evenodd" d="M13.4969 24.9999C13.4969 18.6502 18.6503 13.4968 25 13.4968H25.0307V24.8772C25.0307 24.9539 24.9693 24.9999 24.908 24.9999H23.9417H23.4663C22.9755 25.0152 22.5767 25.4293 22.5614 25.9201V36.2422C17.3773 35.1226 13.4969 30.5214 13.4969 24.9999ZM21.3495 21.5336C21.3495 22.3312 21.9937 22.9754 22.7913 22.9754C23.5888 22.9754 24.233 22.3312 24.233 21.5336C24.233 20.7361 23.5888 20.0919 22.7913 20.0919C21.9937 20.0919 21.3495 20.7361 21.3495 21.5336Z" fill="#00B956"/>
    </symbol>
    <symbol viewBox="0 0 19 22" id="mobileSearch"  fill="none">
        <path fill-rule="evenodd" clip-rule="evenodd" d="M9.75 18.8748C14.7898 18.8748 18.875 14.7895 18.875 9.74976C18.875 4.70997 14.7898 0.624756 9.75 0.624756C4.71022 0.624756 0.625 4.70997 0.625 9.74976C0.625 14.7895 4.71022 18.8748 9.75 18.8748ZM9.75 2.62476C13.6852 2.62476 16.875 5.81454 16.875 9.74976C16.875 13.685 13.6852 16.8748 9.75 16.8748C5.81479 16.8748 2.625 13.685 2.625 9.74976C2.625 5.81454 5.81479 2.62476 9.75 2.62476Z" fill="#00B956"/>
        <path d="M18.6334 19.7404L15.3034 15.6829L13.7574 16.9517L17.0874 21.0092L18.6334 19.7404Z" fill="#00B956"/>
    </symbol>
    <symbol viewBox="0 0 22 14" id="mobileKey" fill="none">
        <path fill-rule="evenodd" clip-rule="evenodd" d="M18.8996 4.15633L21.3604 6.71965V10.1459H11.8851C10.8494 12.122 8.85247 13.4011 6.62537 13.4011C3.31183 13.4011 0.625366 10.6027 0.625366 7.15112C0.625366 3.69952 3.31183 0.901123 6.62537 0.901123C8.85247 0.901123 10.8494 2.18022 11.8851 4.15633H18.8996ZM18.0712 6.23966H10.5805L10.3274 5.5894C9.71912 4.0267 8.2657 2.98446 6.62537 2.98446C4.4164 2.98446 2.62537 4.85012 2.62537 7.15112C2.62537 9.45213 4.4164 11.3178 6.62537 11.3178C8.2657 11.3178 9.71912 10.2755 10.3274 8.71284L10.5805 8.06258H19.3604V7.5826L18.0712 6.23966ZM5.37499 5.71883C6.13528 5.71883 6.74999 6.35916 6.74999 7.15112C6.74999 7.94309 6.13528 8.58342 5.37499 8.58342C4.61554 8.58342 3.99999 7.94266 3.99999 7.15112C3.99999 6.35959 4.61554 5.71883 5.37499 5.71883Z" fill="#00B956"/>
    </symbol>
    <symbol viewBox="0 0 24 21" id="mobileHamburger" fill="none">
        <rect width="24" height="3" fill="#00B956"/>
        <rect y="9" width="24" height="3" fill="#00B956"/>
        <rect y="18" width="24" height="3" fill="#00B956"/>
    </symbol>
</svg>