<svg width="156" height="50" viewBox="0 0 156 50" fill="none" xmlns="http://www.w3.org/2000/svg">
    <path d="M139.651 19.8159V24.1564H133.839V19.8159H130.979V31.2883H133.839V26.6564H139.651V31.2883H142.526V19.8159H139.651Z" fill="#00B956"/>
    <path fill-rule="evenodd" clip-rule="evenodd" d="M89.5929 19.5552C90.5106 19.5552 91.4741 20.0613 91.9482 21.1043L96.6282 31.2883H93.5847L92.56 28.865H86.6259L85.6011 31.2883H82.5576L87.2376 21.1043C87.7117 20.0613 88.6753 19.5552 89.5929 19.5552ZM89.3635 22.4079L87.6047 26.5644H91.5811L89.8223 22.4079C89.7764 22.2699 89.6694 22.2392 89.5929 22.2392C89.5164 22.2392 89.4247 22.2852 89.3635 22.4079Z" fill="#00B956"/>
    <path d="M57.8576 17.7454C56.5117 17.7454 55.6553 18.4662 55.0282 19.9079L51.2964 28.5276L47.5647 19.9079C46.9376 18.4662 46.0812 17.7454 44.7353 17.7454C43.4812 17.7454 42.1812 18.6503 42.1812 20.5981V31.2883H45.0412V20.9049L48.8035 29.4631C49.3082 30.6595 50.1188 31.411 51.2964 31.411C52.4741 31.411 53.2847 30.6595 53.7894 29.4631L57.5517 20.9049V31.2883H60.4117V20.6135C60.4117 18.6503 59.1117 17.7454 57.8576 17.7454Z" fill="#00B956"/>
    <path d="M65.4283 28.865C65.2907 28.865 65.1836 28.7576 65.1836 28.6196V26.5797H72.326V24.2331H65.1836V22.4846C65.1836 22.3466 65.2907 22.2392 65.4283 22.2392H72.4942V19.8159H64.0213C63.0271 19.8159 62.3236 20.6441 62.3236 21.5184V29.5552C62.3236 30.4294 63.0424 31.2576 64.0213 31.2576H72.4942V28.8343H65.4283V28.865Z" fill="#00B956"/>
    <path d="M77.3577 31.2884V22.5C77.3577 22.362 77.4647 22.2546 77.6024 22.2546H84.6683V19.8313H76.1953C75.2012 19.8313 74.4977 20.6595 74.4977 21.5338V31.2884H77.3577Z" fill="#00B956"/>
    <path fill-rule="evenodd" clip-rule="evenodd" d="M123.026 19.6472C127.354 19.6472 129.082 21.5184 129.082 25.5368C129.082 29.4938 127.324 31.3957 122.995 31.3957H122.047C117.719 31.3957 115.96 29.4938 115.96 25.5368C115.96 21.5184 117.673 19.6472 122.017 19.6472H123.026ZM122.062 29.0184H122.98C125.351 29.0184 126.299 27.9447 126.299 25.5368V25.5214C126.299 23.1902 125.412 22.0399 122.98 22.0399H122.062C119.554 22.0399 118.744 23.1902 118.744 25.5214V25.5368C118.744 27.9447 119.677 29.0184 122.062 29.0184Z" fill="#00B956"/>
    <path fill-rule="evenodd" clip-rule="evenodd" d="M102.302 18.0215H107.977C112.198 18.0215 113.895 20.1687 113.911 23.9111C113.911 24.4939 113.865 25.0307 113.788 25.5368C113.345 28.1902 111.785 29.816 107.824 29.816H106.585V31.2884H103.725V29.816H102.471C98.5095 29.816 96.9495 28.1902 96.506 25.5368C96.4143 25.0307 96.3837 24.4939 96.3837 23.9111C96.3837 20.1687 98.066 18.0215 102.302 18.0215ZM103.71 27.3927H102.394C100.452 27.3927 99.7637 26.6718 99.3355 25.5368C99.1672 25.092 99.1672 24.5399 99.1672 23.9111C99.1672 21.4724 100.299 20.4295 101.951 20.4295H103.71V27.3927ZM110.944 25.5368C110.515 26.6718 109.812 27.3927 107.885 27.3927H106.57V20.4295H108.328C109.98 20.4295 111.112 21.4571 111.112 23.9111C111.112 24.5399 111.112 25.092 110.944 25.5368Z" fill="#00B956"/>
    <path fill-rule="evenodd" clip-rule="evenodd" d="M26.3519 25.4447V13.5889C32.0107 14.2791 36.4001 19.1257 36.4154 24.9846C36.4154 31.3343 31.2766 36.4876 24.9448 36.4876C24.5931 36.4876 24.2413 36.4723 23.8895 36.4416V26.503C23.8895 26.4416 23.9354 26.3803 24.0119 26.3803H25.4189C25.9236 26.3803 26.3519 25.9662 26.3519 25.4447ZM26.1072 31.2729C25.3119 31.2729 24.6695 30.6287 24.6695 29.8312C24.6695 29.0337 25.3119 28.3895 26.1072 28.3895C26.9025 28.3895 27.5448 29.0337 27.5448 29.8312C27.5448 30.6287 26.9025 31.2729 26.1072 31.2729ZM28.0343 29.8312C28.0343 30.6287 28.6766 31.2729 29.4719 31.2729C30.2672 31.2729 30.9095 30.6287 30.9095 29.8312C30.9095 29.0337 30.2672 28.3895 29.4719 28.3895C28.6766 28.3895 28.0343 29.0337 28.0343 29.8312ZM31.399 29.8312C31.399 30.6287 32.0413 31.2729 32.8366 31.2729C33.6319 31.2729 34.2743 30.6287 34.2743 29.8312C34.2743 29.0337 33.6319 28.3895 32.8366 28.3895C32.0413 28.3895 31.399 29.0337 31.399 29.8312Z" fill="#00B956"/>
    <path fill-rule="evenodd" clip-rule="evenodd" d="M13.4589 24.9999C13.4589 18.6502 18.5977 13.4968 24.9295 13.4968H24.96V24.8772C24.96 24.9539 24.8989 24.9999 24.8377 24.9999H23.8742H23.4C22.9106 25.0152 22.513 25.4293 22.4977 25.9201V36.2422C17.3283 35.1226 13.4589 30.5214 13.4589 24.9999ZM21.2895 21.5336C21.2895 22.3312 21.9318 22.9754 22.7271 22.9754C23.5224 22.9754 24.1648 22.3312 24.1648 21.5336C24.1648 20.7361 23.5224 20.0919 22.7271 20.0919C21.9318 20.0919 21.2895 20.7361 21.2895 21.5336Z" fill="#00B956"/>
</svg>
