<svg xmlns="http://www.w3.org/2000/svg" class="svg-sprite">
    <symbol viewBox="0 0 34 33" id="point1" fill="none">
        <path fill-rule="evenodd" clip-rule="evenodd" d="M17.8025 1C9.5185 1 2.8025 7.716 2.8025 16C2.8025 18.16 3.2675 20.208 4.0895 22.064L1.1825 28.076L3.5345 30.88L10.2865 28.968C12.4985 30.252 15.0605 31 17.8025 31C26.0865 31 32.8025 24.284 32.8025 16C32.8025 7.716 26.0865 1 17.8025 1Z" stroke="#00B956" stroke-width="2"/>
        <path d="M9.80249 20V12" stroke="#00B956" stroke-width="2"/>
        <path d="M17.8025 10V22" stroke="#00B956" stroke-width="2"/>
        <path d="M13.8025 14V18" stroke="#00B956" stroke-width="2"/>
        <path d="M21.8025 17V15" stroke="#00B956" stroke-width="2"/>
        <path d="M25.8025 20V12" stroke="#00B956" stroke-width="2"/>
    </symbol>
    <symbol viewBox="0 0 37 32" id="point2">
        <path fill-rule="evenodd" clip-rule="evenodd" d="M16.1 2C21.1 2 25.7 4.7 28.2 9L30 8C27.1 3.1 21.8 0 16.1 0C7.3 0 0 7.2 0 16C0 24.8 7.2 32 16 32C21.7 32 27 28.9 29.9 24L28.2 23C25.7 27.3 21.1 30 16.1 30C8.4 30 2.1 23.7 2.1 16C2.1 8.3 8.4 2 16.1 2ZM31.1 12H33.1V15H36.1V17H33.1V20H31.1V17H28.1V15H31.1V12ZM14.1 22V20H15.1V18H14.1V15H12.1V18H8.4L10.9 10.3L9 9.7L6.3 18.1L6.1 18.7L7 20H12.1V22H14.1ZM25.7 11.2L24.5 12.8C23 11.6 20.6 11.8 19.3 13.2C18.5 13.9 18.1 14.9 18.1 16C18.1 17.1 18.5 18.1 19.3 19C20.5 20.2 22.6 20.5 24.1 19.6V17.1H22.1V15.1H26.1V20.6L25.7 20.9C24.7 21.7 23.4 22.1 22.1 22.1C20.5 22.1 19 21.4 17.9 20.3C16.7 19.1 16.1 17.6 16.1 16C16.1 14.4 16.7 12.9 17.9 11.8C19.9 9.7 23.4 9.4 25.7 11.2Z" fill="#00B956"/>
        <mask id="mask0" mask-type="alpha" maskUnits="userSpaceOnUse" x="0" y="0" width="37" height="32">
            <path fill-rule="evenodd" clip-rule="evenodd" d="M16.1 2C21.1 2 25.7 4.7 28.2 9L30 8C27.1 3.1 21.8 0 16.1 0C7.3 0 0 7.2 0 16C0 24.8 7.2 32 16 32C21.7 32 27 28.9 29.9 24L28.2 23C25.7 27.3 21.1 30 16.1 30C8.4 30 2.1 23.7 2.1 16C2.1 8.3 8.4 2 16.1 2ZM31.1 12H33.1V15H36.1V17H33.1V20H31.1V17H28.1V15H31.1V12ZM14.1 22V20H15.1V18H14.1V15H12.1V18H8.4L10.9 10.3L9 9.7L6.3 18.1L6.1 18.7L7 20H12.1V22H14.1ZM25.7 11.2L24.5 12.8C23 11.6 20.6 11.8 19.3 13.2C18.5 13.9 18.1 14.9 18.1 16C18.1 17.1 18.5 18.1 19.3 19C20.5 20.2 22.6 20.5 24.1 19.6V17.1H22.1V15.1H26.1V20.6L25.7 20.9C24.7 21.7 23.4 22.1 22.1 22.1C20.5 22.1 19 21.4 17.9 20.3C16.7 19.1 16.1 17.6 16.1 16C16.1 14.4 16.7 12.9 17.9 11.8C19.9 9.7 23.4 9.4 25.7 11.2Z" fill="white"/>
        </mask>
    </symbol>
    <symbol viewBox="0 0 32 32" id="point3">
        <path fill-rule="evenodd" clip-rule="evenodd" d="M13 2V0C23.477 0 32 8.523 32 19H30C30 9.626 22.374 2 13 2ZM13 14V12C16.859 12 20 15.141 20 19H18C18 16.243 15.757 14 13 14ZM13 8V6C20.168 6 26 11.832 26 19H24C24 12.935 19.065 8 13 8ZM2 14.3848L3.557 12.8278L7.404 16.8298L5 19.2348L5.33 19.8818C6.865 22.8918 9.108 24.9808 12.118 26.5158L12.766 26.8458L15.17 24.4418L19.172 28.4438L17.615 29.9998H17.476C9.059 29.9998 2 23.0118 2 14.5248V14.3848ZM17.476 31.9998H18.443L22 28.4438L15.17 21.6138L12.394 24.3898C10.247 23.1508 8.695 21.7528 7.456 19.6068L10.232 16.8298L3.557 9.9998L0 13.5568V14.5248C0 23.9998 8 31.9998 17.476 31.9998Z" fill="#00B956"/>
        <mask id="mask1" mask-type="alpha" maskUnits="userSpaceOnUse" x="0" y="0" width="32" height="32">
            <path fill-rule="evenodd" clip-rule="evenodd" d="M13 2V0C23.477 0 32 8.523 32 19H30C30 9.626 22.374 2 13 2ZM13 14V12C16.859 12 20 15.141 20 19H18C18 16.243 15.757 14 13 14ZM13 8V6C20.168 6 26 11.832 26 19H24C24 12.935 19.065 8 13 8ZM2 14.3848L3.557 12.8278L7.404 16.8298L5 19.2348L5.33 19.8818C6.865 22.8918 9.108 24.9808 12.118 26.5158L12.766 26.8458L15.17 24.4418L19.172 28.4438L17.615 29.9998H17.476C9.059 29.9998 2 23.0118 2 14.5248V14.3848ZM17.476 31.9998H18.443L22 28.4438L15.17 21.6138L12.394 24.3898C10.247 23.1508 8.695 21.7528 7.456 19.6068L10.232 16.8298L3.557 9.9998L0 13.5568V14.5248C0 23.9998 8 31.9998 17.476 31.9998Z" fill="white"/>
        </mask>
    </symbol>
    <symbol viewBox="0 0 28 32" id="point4">
        <path fill-rule="evenodd" clip-rule="evenodd" d="M26 20V32H2V20H0V10H4.6C3.6 8.9 3 7.5 3 6C3 2.7 5.7 0 9 0C11.1 0 12.9 1.1 14 2.7C15.1 1.1 16.9 0 19 0C22.3 0 25 2.7 25 6C25 7.5 24.4 8.9 23.4 10H28V20H26ZM13 20H4V30H13V20ZM24 30H15V20H24V30ZM23 6C23 3.8 21.2 2 19 2C16.8 2 15 3.8 15 6V10H19C21.2 10 23 8.2 23 6ZM5 6C5 3.8 6.8 2 9 2C11.2 2 13 3.8 13 6V10H9C6.8 10 5 8.2 5 6ZM9 12H2V18H26V12H19H15H13H9Z" fill="#00B956"/>
        <mask id="mask2" mask-type="alpha" maskUnits="userSpaceOnUse" x="0" y="0" width="28" height="32">
            <path fill-rule="evenodd" clip-rule="evenodd" d="M26 20V32H2V20H0V10H4.6C3.6 8.9 3 7.5 3 6C3 2.7 5.7 0 9 0C11.1 0 12.9 1.1 14 2.7C15.1 1.1 16.9 0 19 0C22.3 0 25 2.7 25 6C25 7.5 24.4 8.9 23.4 10H28V20H26ZM13 20H4V30H13V20ZM24 30H15V20H24V30ZM23 6C23 3.8 21.2 2 19 2C16.8 2 15 3.8 15 6V10H19C21.2 10 23 8.2 23 6ZM5 6C5 3.8 6.8 2 9 2C11.2 2 13 3.8 13 6V10H9C6.8 10 5 8.2 5 6ZM9 12H2V18H26V12H19H15H13H9Z" fill="white"/>
        </mask>
    </symbol>
</svg>